<svg width="14" height="13" viewBox="0 0 14 13" fill="none" xmlns="http://www.w3.org/2000/svg">
<g id="Icon/Fill/star">
<path id="Mask" fill-rule="evenodd" clip-rule="evenodd" d="M9.80395 11.0662C9.72446 11.0662 9.64447 11.0476 9.57102 11.0094L7.0058 9.66915L4.44108 11.0094C4.27104 11.0974 4.06578 11.0823 3.91184 10.9696C3.75689 10.8569 3.67992 10.6663 3.71262 10.4776L4.20111 7.64625L2.12841 5.64147C1.99056 5.50815 1.94076 5.30792 1.99962 5.1248C2.05848 4.94268 2.21595 4.80937 2.40611 4.7822L5.27368 4.36565L6.55554 1.78685C6.72558 1.44475 7.28652 1.44475 7.45656 1.78685L8.73842 4.36565L11.606 4.7822C11.7962 4.80937 11.9536 4.94268 12.0125 5.1248C12.0713 5.30792 12.0215 5.50815 11.8837 5.64147L9.81099 7.64625L10.2995 10.4776C10.3322 10.6663 10.2547 10.8569 10.1003 10.9696C10.0127 11.034 9.90859 11.0662 9.80395 11.0662Z" fill="black"/>
<mask id="mask0_174_252" style="mask-type:alpha" maskUnits="userSpaceOnUse" x="1" y="1" width="12" height="11">
<path id="Mask_2" fill-rule="evenodd" clip-rule="evenodd" d="M9.80395 11.0662C9.72446 11.0662 9.64447 11.0476 9.57102 11.0094L7.0058 9.66915L4.44108 11.0094C4.27104 11.0974 4.06578 11.0823 3.91184 10.9696C3.75689 10.8569 3.67992 10.6663 3.71262 10.4776L4.20111 7.64625L2.12841 5.64147C1.99056 5.50815 1.94076 5.30792 1.99962 5.1248C2.05848 4.94268 2.21595 4.80937 2.40611 4.7822L5.27368 4.36565L6.55554 1.78685C6.72558 1.44475 7.28652 1.44475 7.45656 1.78685L8.73842 4.36565L11.606 4.7822C11.7962 4.80937 11.9536 4.94268 12.0125 5.1248C12.0713 5.30792 12.0215 5.50815 11.8837 5.64147L9.81099 7.64625L10.2995 10.4776C10.3322 10.6663 10.2547 10.8569 10.1003 10.9696C10.0127 11.034 9.90859 11.0662 9.80395 11.0662Z" fill="white"/>
</mask>
<g mask="url(#mask0_174_252)">
<g id="&#240;&#159;&#142;&#168; Color">
<rect id="Base" x="0.969055" y="0.500977" width="12.074" height="12.074" fill="#00AC4E"/>
</g>
</g>
</g>
</svg>
